<?xml version="1.0" standalone="no"?>
<!DOCTYPE svg PUBLIC "-//W3C//DTD SVG 20010904//EN"
 "http://www.w3.org/TR/2001/REC-SVG-20010904/DTD/svg10.dtd">
<svg version="1.0" xmlns="http://www.w3.org/2000/svg"
 width="1080.000000pt" height="1080.000000pt" viewBox="0 0 1080.000000 1080.000000"
 preserveAspectRatio="xMidYMid meet">
<metadata>
Created by potrace 1.14, written by Peter Selinger 2001-2017
</metadata>
<g transform="translate(0.000000,1080.000000) scale(0.100000,-0.100000)"
fill="#000000" stroke="none">
<path d="M5059 10796 c-2 -2 -45 -6 -96 -10 -98 -7 -139 -11 -246 -27 -37 -5
-86 -11 -110 -14 -23 -3 -64 -10 -92 -15 -27 -5 -63 -11 -80 -14 -215 -33
-787 -191 -930 -256 -11 -5 -66 -27 -122 -49 -168 -66 -447 -198 -596 -282
-90 -51 -392 -235 -412 -251 -5 -4 -57 -42 -115 -82 -58 -41 -112 -81 -120
-88 -8 -7 -32 -26 -55 -42 -22 -15 -44 -33 -50 -40 -5 -6 -28 -24 -50 -41
-163 -121 -499 -448 -679 -660 -37 -44 -75 -89 -85 -100 -43 -49 -241 -314
-241 -323 0 -6 -4 -12 -8 -14 -17 -7 -252 -376 -252 -396 0 -6 -3 -12 -8 -14
-22 -9 -239 -452 -320 -653 -58 -145 -148 -397 -156 -439 -3 -12 -18 -66 -34
-121 -41 -137 -97 -381 -126 -555 -25 -144 -30 -184 -41 -290 -3 -30 -8 -64
-10 -75 -12 -62 -20 -278 -20 -555 0 -308 7 -455 30 -620 3 -19 8 -57 11 -85
5 -43 42 -264 59 -360 4 -16 17 -77 31 -135 14 -58 27 -113 29 -122 16 -72 63
-230 104 -355 144 -438 343 -856 589 -1238 73 -113 68 -105 167 -242 254 -353
569 -692 905 -973 36 -30 67 -57 70 -60 3 -3 41 -32 85 -65 43 -33 86 -65 95
-72 58 -45 111 -83 116 -83 2 0 17 -11 32 -25 15 -14 30 -25 33 -25 4 0 54
-31 111 -69 252 -167 772 -433 948 -486 14 -4 30 -11 35 -15 11 -9 415 -146
455 -154 14 -3 77 -19 140 -36 144 -38 435 -97 560 -114 19 -3 69 -10 110 -15
41 -6 105 -13 143 -17 37 -3 109 -9 160 -13 118 -10 611 -11 742 -1 147 11
248 21 265 25 8 2 44 7 80 10 36 4 126 18 200 31 74 14 151 27 170 31 114 18
489 120 673 183 295 100 699 285 955 436 73 44 141 84 152 89 42 24 308 206
328 225 11 11 24 20 27 20 11 0 282 220 385 312 160 143 371 358 499 508 93
110 93 110 148 183 29 36 57 72 63 79 47 54 261 373 338 503 116 198 274 516
352 709 216 538 342 1072 388 1646 15 196 7 784 -13 945 -6 50 -14 117 -20
170 -16 136 -67 398 -120 617 -124 515 -396 1139 -697 1597 -26 41 -48 77 -48
82 0 4 -3 9 -7 11 -5 2 -33 39 -63 83 -158 233 -376 490 -616 729 -151 151
-222 214 -389 350 -153 124 -133 109 -255 196 -279 200 -487 324 -795 475
-156 77 -355 165 -370 165 -4 0 -21 7 -38 15 -104 49 -498 172 -717 224 -111
26 -243 53 -355 72 -33 5 -73 12 -90 15 -16 4 -46 7 -65 9 -19 1 -54 6 -76 9
-23 4 -63 9 -90 12 -27 2 -67 7 -89 10 -46 6 -810 15 -816 10z"/>
</g>
</svg>
